<mxfile host="65bd71144e">
    <diagram id="cWX1Ei6Wa7bEQJJp7BB5" name="Page-1">
        <mxGraphModel dx="759" dy="459" grid="0" gridSize="10" guides="1" tooltips="1" connect="1" arrows="1" fold="1" page="1" pageScale="1" pageWidth="827" pageHeight="1169" background="#000000" math="0" shadow="0">
            <root>
                <mxCell id="0"/>
                <mxCell id="1" parent="0"/>
                <mxCell id="2" value="rg-playwright-availability-tester" style="fontStyle=0;verticalAlign=top;align=center;spacingTop=-2;fillColor=none;rounded=1;whiteSpace=wrap;html=1;strokeColor=#919191;strokeWidth=2;dashed=1;container=1;collapsible=0;expand=0;recursiveResize=0;labelBackgroundColor=none;" parent="1" vertex="1">
                    <mxGeometry x="167" y="41" width="560" height="310" as="geometry"/>
                </mxCell>
                <mxCell id="34" value="App service plan" style="fontStyle=0;verticalAlign=top;align=center;spacingTop=-2;fillColor=none;rounded=1;whiteSpace=wrap;html=1;strokeColor=#919191;strokeWidth=2;dashed=1;container=1;collapsible=0;expand=0;recursiveResize=0;labelBackgroundColor=none;" parent="2" vertex="1">
                    <mxGeometry x="30" y="47" width="162" height="143" as="geometry"/>
                </mxCell>
                <mxCell id="36" value="" style="aspect=fixed;html=1;points=[];align=center;image;fontSize=12;image=img/lib/azure2/app_services/App_Service_Plans.svg;rounded=1;labelBackgroundColor=none;" parent="34" vertex="1">
                    <mxGeometry x="150" y="121" width="35.5" height="35.5" as="geometry"/>
                </mxCell>
                <mxCell id="5" value="Playwright tester" style="aspect=fixed;html=1;points=[];align=center;image;fontSize=12;image=img/lib/azure2/iot/Function_Apps.svg;rounded=1;labelBackgroundColor=none;" parent="34" vertex="1">
                    <mxGeometry x="40" y="35" width="68" height="60" as="geometry"/>
                </mxCell>
                <mxCell id="13" value="Function app storage" style="edgeStyle=none;html=1;startArrow=classic;startFill=1;labelBackgroundColor=none;" parent="2" edge="1">
                    <mxGeometry x="0.2453" y="-8" relative="1" as="geometry">
                        <mxPoint x="110" y="168" as="sourcePoint"/>
                        <mxPoint x="250" y="240" as="targetPoint"/>
                        <Array as="points">
                            <mxPoint x="110" y="240"/>
                        </Array>
                        <mxPoint as="offset"/>
                    </mxGeometry>
                </mxCell>
                <mxCell id="8" value="Storage Account&lt;br&gt;" style="aspect=fixed;html=1;points=[];align=center;image;fontSize=12;image=img/lib/azure2/storage/Storage_Accounts.svg;rounded=1;labelBackgroundColor=none;" parent="2" vertex="1">
                    <mxGeometry x="263.5" y="210" width="65" height="52" as="geometry"/>
                </mxCell>
                <mxCell id="9" value="App Insights" style="aspect=fixed;html=1;points=[];align=center;image;fontSize=12;image=img/lib/azure2/management_governance/Application_Insights.svg;rounded=1;labelBackgroundColor=none;" parent="2" vertex="1">
                    <mxGeometry x="302" y="80" width="44" height="63" as="geometry"/>
                </mxCell>
                <mxCell id="14" value="" style="html=1;startArrow=classic;startFill=1;labelBackgroundColor=none;" parent="2" edge="1">
                    <mxGeometry relative="1" as="geometry">
                        <mxPoint x="442" y="111" as="sourcePoint"/>
                        <mxPoint x="352" y="111" as="targetPoint"/>
                        <Array as="points">
                            <mxPoint x="382" y="111"/>
                        </Array>
                    </mxGeometry>
                </mxCell>
                <mxCell id="10" value="Log Analytics Workspace" style="aspect=fixed;html=1;points=[];align=center;image;fontSize=12;image=img/lib/azure2/analytics/Log_Analytics_Workspaces.svg;rounded=1;labelBackgroundColor=none;" parent="2" vertex="1">
                    <mxGeometry x="452" y="80" width="64" height="64" as="geometry"/>
                </mxCell>
                <mxCell id="37" value="&lt;meta charset=&quot;utf-8&quot;&gt;&lt;span style=&quot;color: rgb(240, 240, 240); font-family: Helvetica; font-size: 11px; font-style: normal; font-variant-ligatures: normal; font-variant-caps: normal; font-weight: 400; letter-spacing: normal; orphans: 2; text-align: center; text-indent: 0px; text-transform: none; widows: 2; word-spacing: 0px; -webkit-text-stroke-width: 0px; text-decoration-thickness: initial; text-decoration-style: initial; text-decoration-color: initial; float: none; display: inline !important;&quot;&gt;Availability&lt;/span&gt;&lt;br style=&quot;border-color: rgb(0, 0, 0); color: rgb(240, 240, 240); font-family: Helvetica; font-size: 11px; font-style: normal; font-variant-ligatures: normal; font-variant-caps: normal; font-weight: 400; letter-spacing: normal; orphans: 2; text-align: center; text-indent: 0px; text-transform: none; widows: 2; word-spacing: 0px; -webkit-text-stroke-width: 0px; text-decoration-thickness: initial; text-decoration-style: initial; text-decoration-color: initial;&quot;&gt;&lt;span style=&quot;color: rgb(240, 240, 240); font-family: Helvetica; font-size: 11px; font-style: normal; font-variant-ligatures: normal; font-variant-caps: normal; font-weight: 400; letter-spacing: normal; orphans: 2; text-align: center; text-indent: 0px; text-transform: none; widows: 2; word-spacing: 0px; -webkit-text-stroke-width: 0px; text-decoration-thickness: initial; text-decoration-style: initial; text-decoration-color: initial; float: none; display: inline !important;&quot;&gt;telemetry&lt;/span&gt;" style="html=1;startArrow=classic;startFill=1;endArrow=classic;endFill=1;labelBackgroundColor=none;" parent="2" target="9" edge="1">
                    <mxGeometry x="0.2511" y="17" relative="1" as="geometry">
                        <mxPoint x="142" y="112.44" as="sourcePoint"/>
                        <mxPoint x="236.7360000000001" y="111.99999999999994" as="targetPoint"/>
                        <mxPoint as="offset"/>
                    </mxGeometry>
                </mxCell>
                <mxCell id="3" value="" style="sketch=0;aspect=fixed;html=1;points=[];align=center;image;fontSize=12;image=img/lib/mscae/ResourceGroup.svg;rounded=1;labelBackgroundColor=none;" parent="2" vertex="1">
                    <mxGeometry x="520" y="278" width="52.5" height="42" as="geometry"/>
                </mxCell>
                <mxCell id="23" style="html=1;startArrow=classic;startFill=1;endArrow=classic;endFill=1;labelBackgroundColor=none;" parent="1" edge="1">
                    <mxGeometry relative="1" as="geometry">
                        <mxPoint x="139" y="154" as="sourcePoint"/>
                        <mxPoint x="227" y="154" as="targetPoint"/>
                    </mxGeometry>
                </mxCell>
                <mxCell id="12" value="Site to be tested&lt;br&gt;" style="aspect=fixed;html=1;points=[];align=center;image;fontSize=12;image=img/lib/azure2/app_services/App_Services.svg;rounded=1;labelBackgroundColor=none;" parent="1" vertex="1">
                    <mxGeometry x="59" y="121" width="64" height="64" as="geometry"/>
                </mxCell>
            </root>
        </mxGraphModel>
    </diagram>
</mxfile>